# xmcd CD database file
#
# Track frame offsets:
#	150
#	16583
#	36850
#	56712
#	76304
#	97840
#	115515
#	129275
#	144466
#	161898
#	178736
#	196006
#	209119
#	227198
#	247357
#
# Disc length: 3608 seconds
#
# Revision: 0
# Processed by: cddbd v1.5.1PL0 Copyright (c) Steve Scherf et al.
# Submitted via: CDex 1.51
#
DISCID=ca0e160f
DTITLE=The Hickmen - Welcome Home
DYEAR=2003
DGENRE=Country
TTITLE0=Walking Shadow of a Man
TTITLE1=Full Moon Rising
TTITLE2=Southern Cal
TTITLE3=Silence When I Go
TTITLE4=The Weight
TTITLE5=When Will I Know?
TTITLE6=Shadows of the Clouds
TTITLE7=Desert Wind
TTITLE8=Melt Away
TTITLE9=He's Insane
TTITLE10=I'll Never Let You Go
TTITLE11=Willy Stardust
TTITLE12=Broken Down Woman
TTITLE13=All God's Children
TTITLE14=Tramp That I Call Mine
EXTD=YEAR: 2003
EXTT0=
EXTT1=
EXTT2=
EXTT3=
EXTT4=
EXTT5=
EXTT6=
EXTT7=
EXTT8=
EXTT9=
EXTT10=
EXTT11=
EXTT12=
EXTT13=
EXTT14=
PLAYORDER=
